<?xml version="1.0" encoding="UTF-8"?>
<svg xmlns="http://www.w3.org/2000/svg" xmlns:svg="http://www.w3.org/2000/svg" xmlns:inkscape="http://www.inkscape.org/namespaces/inkscape" xmlns:xlink="http://www.w3.org/1999/xlink" xmlns:sodipodi="http://sodipodi.sourceforge.net/DTD/sodipodi-0.dtd" version="1.1" x="0.000000" y="0.000000" width="1200.000000" height="1200.000000" viewBox="0.000000 0.000000 1200.000000 1200.000000">
  <g inkscape:groupmode="layer" inkscape:label="Layer" display="none" sodipodi:insensitive="true">
    <rect x="0.000000" y="0.000000" width="1200.000000" height="1200.000000" fill="rgba(0,166,219,1.000000)" stroke="rgba(255,255,255,0.000000)" stroke-width="100.000" stroke-linecap="round" stroke-linejoin="miter"/>
  </g>
  <g inkscape:groupmode="layer" inkscape:label="Layer">
    <path d=" M 697.059743 816.407143 C 946.997219 853.080191 1174.518120 790.292731 1334.998005 788.784567" fill="rgba(255,255,255,1.000000)" stroke="rgba(255,255,255,1.000000)" stroke-width="100.000" stroke-linecap="round" stroke-linejoin="miter"/>
    <path d=" M 758.863198 779.545482 C 1075.228956 690.643757 1121.094792 738.629895 1281.574677 737.121731" fill="rgba(255,255,255,1.000000)" stroke="rgba(255,255,255,1.000000)" stroke-width="100.000" stroke-linecap="round" stroke-linejoin="miter"/>
    <path d=" M 781.295553 845.349568 C 744.213421 869.672673 947.579137 885.793695 1113.987025 836.487561" fill="rgba(255,255,255,1.000000)" stroke="rgba(255,255,255,1.000000)" stroke-width="100.000" stroke-linecap="round" stroke-linejoin="miter"/>
    <path d=" M 798.893775 695.640452 C 857.973871 651.142399 937.585003 693.283602 1009.654273 658.118867 C 1081.723543 622.954131 1144.155809 621.445670 1220.414920 653.687863" fill="rgba(255,255,255,1.000000)" stroke="rgba(255,255,255,1.000000)" stroke-width="100.000" stroke-linecap="round" stroke-linejoin="miter"/>
  </g>
  <g inkscape:groupmode="layer" inkscape:label="Layer" sodipodi:insensitive="true">
    <path d=" M -250.000000 436.158362 C 63.431554 453.697150 348.751830 423.669213 550.000000 422.947938" fill="rgba(255,255,255,1.000000)" stroke="rgba(255,255,255,1.000000)" stroke-width="100.000" stroke-linecap="round" stroke-linejoin="miter"/>
    <path d=" M -172.496005 418.529369 C 224.239262 376.012354 281.756848 398.961598 483.005018 398.240323" fill="rgba(255,255,255,1.000000)" stroke="rgba(255,255,255,1.000000)" stroke-width="100.000" stroke-linecap="round" stroke-linejoin="miter"/>
    <path d=" M -144.364938 450.000000 C -190.867409 461.632461 0.000000 487.747588 272.843424 445.761769" fill="rgba(255,255,255,1.000000)" stroke="rgba(255,255,255,1.000000)" stroke-width="100.000" stroke-linecap="round" stroke-linejoin="miter"/>
    <path d=" M -122.296066 378.402011 C -48.207272 357.120934 51.628260 377.274853 142.005996 360.457411 C 232.383733 343.639969 310.676282 342.918552 406.308245 358.338296" fill="rgba(255,255,255,1.000000)" stroke="rgba(255,255,255,1.000000)" stroke-width="100.000" stroke-linecap="round" stroke-linejoin="miter"/>
  </g>
  <g inkscape:groupmode="layer" inkscape:label="Layer" sodipodi:insensitive="true">
    <path d=" M 716.760254 185.023638 C 1023.625317 193.434755 1302.968043 179.034189 1500.000000 178.688285" fill="rgba(255,255,255,1.000000)" stroke="rgba(255,255,255,1.000000)" stroke-width="70.000" stroke-linecap="round" stroke-linejoin="miter"/>
    <path d=" M 792.640516 176.569262 C 1181.064053 156.179280 1237.376627 167.185102 1434.408584 166.839198" fill="rgba(255,255,255,1.000000)" stroke="rgba(255,255,255,1.000000)" stroke-width="70.000" stroke-linecap="round" stroke-linejoin="miter"/>
    <path d=" M 902.307562 206.934338 C 856.779331 212.512944 1043.648008 225.037035 1310.775276 204.901800" fill="rgba(255,255,255,1.000000)" stroke="rgba(255,255,255,1.000000)" stroke-width="70.000" stroke-linecap="round" stroke-linejoin="miter"/>
    <path d=" M 841.788750 157.325293 C 914.325360 147.119479 1012.069306 156.784740 1100.553600 148.719561 C 1189.037895 140.654382 1265.690190 140.308410 1359.318633 147.703292" fill="rgba(255,255,255,1.000000)" stroke="rgba(255,255,255,1.000000)" stroke-width="70.000" stroke-linecap="round" stroke-linejoin="miter"/>
  </g>
</svg>
