<?xml version="1.0" encoding="utf-8"?>
<!-- Generator: Adobe Illustrator 15.0.0, SVG Export Plug-In . SVG Version: 6.00 Build 0)  -->
<!DOCTYPE svg PUBLIC "-//W3C//DTD SVG 1.1//EN" "http://www.w3.org/Graphics/SVG/1.1/DTD/svg11.dtd">
<svg version="1.1" id="レイヤー_1" xmlns="http://www.w3.org/2000/svg" xmlns:xlink="http://www.w3.org/1999/xlink" x="0px"
	 y="0px" width="128px" height="128px" viewBox="0 0 128 128" enable-background="new 0 0 128 128" xml:space="preserve">
<path fill="#00A000" d="M52,103.059C24.397,103.059,1.941,80.603,1.941,53S24.397,2.941,52,2.941S102.059,25.397,102.059,53
	S79.603,103.059,52,103.059z M52,17.941c-19.332,0-35.059,15.728-35.059,35.059c0,19.331,15.728,35.059,35.059,35.059
	c19.331,0,35.059-15.728,35.059-35.059C87.059,33.668,71.331,17.941,52,17.941z"/>
<rect x="76.593" y="95.272" transform="matrix(0.7129 0.7013 -0.7013 0.7129 100.257 -39.34)" fill="#00A000" width="43.161" height="15"/>
</svg>
